<svg xmlns="http://www.w3.org/2000/svg" viewBox="0 0 500 500">
  <defs>
    <style>
      .cls-1 {
        fill: none;
        stroke: #1c2232;
        stroke-miterlimit: 10;
        stroke-width: 15px;
      }
    </style>
  </defs>
  <g id="bartenders">
    <g id="bartender_black">
      <path class="cls-1" d="M72.8,452.22c.71-2,1.41-4,2.09-6.14.89-2.73,1.7-5.41,2.44-8,0,0,3.24-11.39,5.1-22.08,3.17-18.27-2.62-46.3-8.5-69.08-9.33-36.2-14.35-41.62-15.85-63.42a176.8,176.8,0,0,1,1.3-33.67l.22-1.43v0c.14-.9-2.21-3-2.94-3.8-1.14-1.28-1.3-2.76-1.55-5.1-.51-4.7,4.37-10.57,8.35-13.87,3.69-3.07,12.28-8.63,42.18-9.48,26.33-.76,38.19,3,45.3,6.08,7.48,3.21,11.62,6.43,14.16,10.9,1.38,2.44,2.34,5.35,1.7,20.53-.54,12.81-1.69,19.71-4,33-.82,4.83-1.78,9.86-5.52,14.73-1.52,2-4.39,5.6-9.2,6.51a10.82,10.82,0,0,1-6.65-.57c-5.88-2.91-4.25-12.31-9.2-30.58-1.91-7-2.9-10.55-4.82-12.59-5.83-6.22-15.85-6.19-30.72-5.95-12.33.2-15.18,1.79-21.65-.28a34.06,34.06,0,0,1-15.29-10.62,28.46,28.46,0,0,0,10.76,9.06c5.77,2.7,12.79,2.5,26.61,2,9.71-.36,12.92-1,18.69.57,4.14,1.11,8.06,2.17,11.32,5.38,3,2.95,3.72,6,7.08,24.91,1.84,10.37,2.74,15.73,6.93,17.84a10.42,10.42,0,0,0,5.53.85c6.18-.53,9.66-5.71,10.19-6.51C148.58,339,143,363.48,138.77,380a89.44,89.44,0,0,0-3.4,26.05c.27,10.31,2.46,19.43,4.53,28,1.86,7.74,3.84,14.12,5.38,18.69Z"/>
      <circle class="cls-1" cx="261.72" cy="143.93" r="96.43"/>
      <path class="cls-1" d="M167,261a247.54,247.54,0,0,1,43-11.77c17.51-3.11,32.39-3.71,42.94-4.21,5.12-.25,10.46-.38,16.27-.38,50.17,0,85,9.31,106.07,15.09,35,9.62,43.61,17.67,48.21,22.63A62.08,62.08,0,0,1,437,306l-1.85,13.82q-6.78,50.85-13.57,101.71A38,38,0,0,1,392,450H158"/>
      <path class="cls-1" d="M192.07,252c9,25.26,42.3,42.34,77.83,40.76,32.23-1.44,60.15-18,68.1-40.76"/>
      <path class="cls-1" d="M182.43,90.9c7.76,37.4,14.19,48.29,19.29,48.21,12.68-.19,21.45-68.4,28.92-67.5,4.75.58,4.21,28.39,9.65,28.93,5.62.56,10-28.71,19.28-28.93,7.05-.16,8.3,16.72,19.29,19.29,11.39,2.66,19.7-13.23,28.93-9.65,6.49,2.52,8.41,12.72,9.64,19.29,3.1,16.49-2.81,27.27,0,28.93,2.19,1.29,9-3.35,28.93-28.93"/>
    </g>
  </g>
</svg>
