<svg xmlns="http://www.w3.org/2000/svg" viewBox="0 0 500 500">
  <defs>
    <style>
      .cls-1 {
        fill: #1c2232;
        stroke-width: 5px;
      }

      .cls-1, .cls-2, .cls-3, .cls-4 {
        stroke: #1c2232;
        stroke-miterlimit: 10;
      }

      .cls-2, .cls-3, .cls-4 {
        fill: none;
      }

      .cls-2 {
        stroke-width: 16px;
      }

      .cls-3, .cls-4 {
        stroke-width: 15px;
      }

      .cls-4 {
        stroke-linecap: round;
      }
    </style>
  </defs>
  <g id="bartenders">
    <g>
      <g>
        <path class="cls-1" d="M51.39,266a188.64,188.64,0,0,0,0,45c3.61,29.67,12.94,46.08,18,63,6.23,20.82,9,52.7-9,99h90a224.87,224.87,0,0,1-9-63,248.2,248.2,0,0,1,9-63,258.94,258.94,0,0,1,9-27c-1.14,1.36-7.8,9-18,9-9.55,0-16-6.68-18-9-13.34-15.57,1.07-36.76-9-45-8.68-7.11-22.43,6.21-45,0A53.56,53.56,0,0,1,51.39,266Z"/>
        <path class="cls-2" d="M158.08,242.46c-1.62-1.53-6.55-5.8-27-9-23.19-3.62-53.74-8.39-72,9-2.5,2.39-9.95,9.49-9,18,1,8.85,10.6,15.32,18,18,19.41,7,33.64-8.35,45,0,3.69,2.72,5.46,7.81,9,18,5.43,15.63,3.17,22.85,9,27,6.89,4.91,17.57.2,18,0,14-6.38,16.63-25.87,18-36C168.51,276.93,171.47,255.07,158.08,242.46Z"/>
      </g>
      <path class="cls-3" d="M171,276.91a247.23,247.23,0,0,1,43-11.77c17.52-3.11,32.4-3.71,43-4.21,5.11-.25,10.46-.38,16.26-.38,50.17,0,85,9.31,106.07,15.09,35,9.63,43.61,17.67,48.22,22.63A62.21,62.21,0,0,1,441,321.91l-1.85,13.82q-6.8,50.85-13.58,101.71A38,38,0,0,1,396,465.91H162"/>
      <path class="cls-3" d="M196,267.91c9,25.26,42.29,42.34,77.83,40.76,32.22-1.44,60.15-18,68.1-40.76"/>
      <path class="cls-1" d="M148.89,148.18c4.91,3.27,24.32-20.1,54-19.59,33.65.57,59.13,33.24,80.08,27.32,3.33-.94,18-9,18-9l18-9c-10.32-9.46-38.63-32.75-80.08-35.45-10.32-.67-44.2-1.65-72,19.6C154.07,131.85,145,145.57,148.89,148.18Z"/>
      <path class="cls-4" d="M360,130.3c2,9.29,7.57,40-9,72-4.21,8.12-25.86,47.21-72,54-45.66,6.72-77.43-23.47-81-27-36.78-36.26-27.77-86.12-27-90"/>
      <path class="cls-1" d="M180,112.3c.51-7.47,2.88-27.26,18-45,23.51-27.58,58.17-27.14,63-27a9,9,0,0,1,18,0c6.69-.26,32.08-.45,54,18,31.88,26.84,27.41,68.72,27,72l-45,9"/>
    </g>
  </g>
</svg>
