<svg xmlns="http://www.w3.org/2000/svg" viewBox="0 0 500 500">
  <defs>
    <style>
      .cls-1, .cls-4 {
        fill: none;
      }

      .cls-1, .cls-2, .cls-3, .cls-4 {
        stroke: #1c2232;
        stroke-miterlimit: 10;
      }

      .cls-1, .cls-2 {
        stroke-width: 15px;
      }

      .cls-2, .cls-3 {
        fill: #1c2232;
      }

      .cls-3 {
        stroke-width: 5px;
      }

      .cls-4 {
        stroke-width: 16px;
      }
    </style>
  </defs>
  <g id="bartenders">
    <g>
      <path class="cls-1" d="M174.2,257.75a247.47,247.47,0,0,1,43-11.77c17.52-3.11,32.4-3.71,42.95-4.21,5.11-.25,10.46-.38,16.26-.38,50.17,0,85,9.31,106.07,15.09,35,9.62,43.61,17.67,48.22,22.63a62.08,62.08,0,0,1,13.5,23.64l-1.85,13.82q-6.78,50.85-13.58,101.71a38,38,0,0,1-29.57,28.47h-234"/>
      <circle class="cls-1" cx="268.91" cy="140.68" r="96.43"/>
      <path class="cls-1" d="M199.27,248.75c9,25.26,42.29,42.34,77.83,40.76,32.23-1.44,60.15-18,68.1-40.76"/>
      <path class="cls-2" d="M183.2,104.75c4.24,1.68,27.5,10.39,52.27-1.1,32.32-15,37.43-50.55,37.73-52.9-6.14-1.17-29.74-4.92-54,9C193.25,74.64,184.93,99.18,183.2,104.75Z"/>
      <path class="cls-2" d="M358.2,113.74c-3.55,1.16-34.38,10.64-63-9-27.87-19.1-30.71-50.07-31-54,7-.63,36.33-2.47,63,18A90.29,90.29,0,0,1,358.2,113.74Z"/>
      <g>
        <path class="cls-3" d="M57.2,248.75a188.11,188.11,0,0,0,0,45c3.6,29.67,12.94,46.08,18,63,6.22,20.82,9,52.7-9,99h90a224.14,224.14,0,0,1-9-63c0-5.27.21-30.8,9-63a254.28,254.28,0,0,1,9-27c-1.15,1.36-7.8,9-18,9-9.56,0-16-6.68-18-9-13.35-15.57,1.06-36.76-9-45-8.69-7.11-22.44,6.21-45,0A53.36,53.36,0,0,1,57.2,248.75Z"/>
        <path class="cls-4" d="M163.89,225.21c-1.63-1.53-6.56-5.8-27-9-23.19-3.62-53.75-8.39-72,9-2.51,2.39-10,9.49-9,18,1,8.85,10.59,15.32,18,18,19.41,7,33.64-8.35,45,0,3.69,2.72,5.46,7.81,9,18,5.42,15.63,3.16,22.85,9,27,6.89,4.91,17.56.2,18,0,14-6.38,16.63-25.87,18-36C174.31,259.68,177.27,237.82,163.89,225.21Z"/>
      </g>
    </g>
  </g>
</svg>
