<svg xmlns="http://www.w3.org/2000/svg" viewBox="0 0 500 500">
  <defs>
    <style>
      .cls-1 {
        fill: #1c2232;
      }

      .cls-2, .cls-3 {
        fill: none;
        stroke-miterlimit: 10;
        stroke-width: 15px;
      }

      .cls-2 {
        stroke: #fff;
      }

      .cls-3 {
        stroke: #1c2232;
      }
    </style>
  </defs>
  <g id="barrel">
    <path class="cls-1" d="M119.32,470a454.52,454.52,0,0,1,9.89-439.19H366.64A449.81,449.81,0,0,1,431.89,242.5C437.25,351.83,401,434,382.44,470Z"/>
    <path class="cls-2" d="M174.71,29.5A586.74,586.74,0,0,0,169.27,469"/>
    <path class="cls-2" d="M223.51,30.16a1391.94,1391.94,0,0,0,1.65,438.36"/>
    <path class="cls-2" d="M276.93,31.48a1233.32,1233.32,0,0,1,21.76,224.21A1232.93,1232.93,0,0,1,281.05,470"/>
    <path class="cls-2" d="M333.64,31.48a632.83,632.83,0,0,1,38.24,208.38A633.38,633.38,0,0,1,331.49,470.5"/>
    <path class="cls-2" d="M114.7,59.17a891.2,891.2,0,0,0,135.19,9.24A892.82,892.82,0,0,0,381.94,57.53"/>
    <path class="cls-2" d="M102.83,87.53A1135.87,1135.87,0,0,0,248.4,96.6a1137.4,1137.4,0,0,0,147.39-9.89"/>
    <path class="cls-2" d="M84.7,385.3a1375.81,1375.81,0,0,1,331.37,1.48"/>
    <path class="cls-2" d="M92.61,410a1431.86,1431.86,0,0,1,316.53,3"/>
    <path class="cls-3" d="M119.89,468a454.52,454.52,0,0,1,9.89-439.19H367.21a449.85,449.85,0,0,1,65.25,211.68C437.83,349.82,401.58,432,383,468Z"/>
  </g>
</svg>
