<svg xmlns="http://www.w3.org/2000/svg" viewBox="0 0 500 500">
  <defs>
    <style>
      .cls-1, .cls-4 {
        fill: none;
      }

      .cls-1, .cls-2, .cls-3, .cls-4 {
        stroke: #1c2232;
        stroke-miterlimit: 10;
      }

      .cls-1, .cls-2 {
        stroke-width: 15px;
      }

      .cls-2, .cls-3 {
        fill: #1c2232;
      }

      .cls-3 {
        stroke-width: 5px;
      }

      .cls-4 {
        stroke-width: 16px;
      }
    </style>
  </defs>
  <g id="bartenders">
    <path class="cls-1" d="M358.14,143.93a96.43,96.43,0,1,1-192.85,0c0-27.52,12.37-48.48,18.57-56.9,1.26-1.71,30.65-40.33,77.86-39.53C308.4,48.29,358.14,87.38,358.14,143.93Z"/>
    <path class="cls-1" d="M167,261a247.54,247.54,0,0,1,43-11.77c17.51-3.11,32.39-3.71,42.94-4.21,5.12-.25,10.46-.38,16.27-.38,50.17,0,85,9.31,106.07,15.09,35,9.62,43.61,17.67,48.21,22.63A62.08,62.08,0,0,1,437,306l-1.85,13.82q-6.78,50.85-13.57,101.71A38,38,0,0,1,392,450H158"/>
    <path class="cls-1" d="M192.07,252c9,25.26,42.3,42.34,77.83,40.76,32.23-1.44,60.15-18,68.1-40.76"/>
    <path class="cls-2" d="M182.43,95.79c7.76,37.4,14.19,48.29,19.29,48.21,12.68-.19,21.45-68.41,28.92-67.5,4.75.57,4.21,28.39,9.65,28.93,5.62.55,10-28.71,19.28-28.93,7.05-.17,8.3,16.72,19.29,19.29,11.39,2.66,19.7-13.23,28.93-9.65,6.49,2.52,8.41,12.72,9.64,19.29,3.1,16.49-2.81,27.26,0,28.93,2.19,1.29,9-3.35,28.93-28.93C333,74.5,304.09,53.14,271,49.89,235.43,46.39,200.69,64.38,182.43,95.79Z"/>
    <path class="cls-3" d="M55,252a188.11,188.11,0,0,0,0,45c3.6,29.67,12.94,46.08,18,63,6.22,20.82,9,52.7-9,99h90a224.87,224.87,0,0,1-9-63c0-5.27.21-30.8,9-63a258.94,258.94,0,0,1,9-27c-1.15,1.36-7.8,9-18,9-9.56,0-16-6.68-18-9-13.34-15.57,1.06-36.76-9-45-8.69-7.11-22.44,6.21-45,0A53.46,53.46,0,0,1,55,252Z"/>
    <path class="cls-4" d="M161.69,228.46c-1.63-1.53-6.55-5.8-27-9-23.19-3.62-53.75-8.39-72,9-2.51,2.39-9.95,9.49-9,18,1,8.85,10.6,15.32,18,18,19.41,7,33.64-8.35,45,0,3.69,2.72,5.46,7.81,9,18,5.43,15.63,3.16,22.85,9,27,6.89,4.91,17.56.2,18,0,14-6.38,16.63-25.87,18-36C172.12,262.93,175.08,241.07,161.69,228.46Z"/>
  </g>
</svg>
