<svg xmlns="http://www.w3.org/2000/svg" viewBox="0 0 500 500">
  <defs>
    <style>
      .cls-1 {
        fill: #1c2232;
      }
    </style>
  </defs>
  <g id="queue">
    <circle class="cls-1" cx="172.81" cy="160" r="72"/>
    <path class="cls-1" d="M24.75,412C10.11,313.78,89.62,233.71,169.16,232c81.59-1.76,166.66,78.88,152.17,180Z"/>
    <circle class="cls-1" cx="308.46" cy="140.33" r="52.33"/>
    <path class="cls-1" d="M220.37,241.13c5-6.09,40.22-47.59,89.21-45.13,54.42,2.74,106.46,58.75,108,135h-108a166.68,166.68,0,0,0-89.21-89.87Z"/>
    <ellipse class="cls-1" cx="407.95" cy="167.56" rx="36" ry="36.41"/>
    <path class="cls-1" d="M365,219.18c19.17-15.29,35.27-15.52,41.13-15.21,33,1.76,65.21,38.21,70.91,91H411.27A171.53,171.53,0,0,0,365,219.18Z"/>
  </g>
</svg>
