<svg xmlns="http://www.w3.org/2000/svg" viewBox="0 0 500 500">
  <defs>
    <style>
      .cls-1 {
        fill: #1c2232;
      }
    </style>
  </defs>
  <g id="sales">
    <path class="cls-1" d="M351.42,309.65q0,30.45-22.55,50.43t-64.32,25.11v50.65h-29.1V387.19a329.47,329.47,0,0,1-48.55-4.33Q163.7,379,148.58,372.08V334.76q16.66,7.77,40.77,13.44a221.9,221.9,0,0,0,46.1,6.11V259.22Q189.9,244.77,171,225.34t-18.89-49.88q0-29.33,22.44-48.21t60.88-23.1v-40h29.1V103.7a222.68,222.68,0,0,1,80.2,16.89l-12.44,31.32q-34.44-13.54-67.76-16v93.75q35.55,12,53,22.66t25.66,24.33Q351.42,290.32,351.42,309.65ZM192.79,175q0,16.22,9.56,26.21t33.1,18.44V136.81q-20.89,3.56-31.77,13.55A32.14,32.14,0,0,0,192.79,175ZM311,312.54q0-16-10.45-25.44t-36-18.33v83.32Q311,345,311,312.54Z"/>
  </g>
</svg>
